<?xml version="1.0" encoding="UTF-8" standalone="no"?>
<!-- Created with Inkscape (http://www.inkscape.org/) -->

<svg xmlns:dc="http://purl.org/dc/elements/1.1/" xmlns:cc="http://creativecommons.org/ns#" xmlns:rdf="http://www.w3.org/1999/02/22-rdf-syntax-ns#" xmlns:svg="http://www.w3.org/2000/svg" xmlns="http://www.w3.org/2000/svg" xmlns:sodipodi="http://sodipodi.sourceforge.net/DTD/sodipodi-0.dtd" xmlns:inkscape="http://www.inkscape.org/namespaces/inkscape" id="svg3120" version="1.1" inkscape:version="0.48.5 r10040" width="836.91901" height="346.39307" sodipodi:docname="K3MsP49gn7uZJbfLJ7WA8.png">
  <metadata id="metadata3126">
    <rdf:RDF>
      <cc:Work rdf:about="">
        <dc:format>image/svg+xml</dc:format>
        <dc:type rdf:resource="http://purl.org/dc/dcmitype/StillImage" />
        <dc:title></dc:title>
      </cc:Work>
    </rdf:RDF>
  </metadata>
  <defs id="defs3124" />
  <sodipodi:namedview pagecolor="#ffffff" bordercolor="#666666" borderopacity="1" objecttolerance="10" gridtolerance="10" guidetolerance="10" inkscape:pageopacity="0" inkscape:pageshadow="2" inkscape:window-width="1366" inkscape:window-height="706" id="namedview3122" showgrid="false" fit-margin-top="0" fit-margin-left="0" fit-margin-right="0" fit-margin-bottom="0" inkscape:zoom="0.78636364" inkscape:cx="300.57128" inkscape:cy="71.405122" inkscape:window-x="-8" inkscape:window-y="-8" inkscape:window-maximized="1" inkscape:current-layer="svg3120" />
  <path inkscape:connector-curvature="0" id="path3134" d="m 92.747036,345.20623 c -2.633814,-0.38662 -11.253567,-1.63727 -19.155006,-2.77922 -19.50974,-2.81963 -48.682414,-12.63745 -54.328892,-18.28393 -9.189417,-9.18942 -8.19656,-21.75129 2.548441,-32.24351 9.74126,-9.51208 18.704601,-10.69282 35.990906,-4.74111 11.815021,4.06793 16.264353,4.45706 52.184055,4.56387 21.59727,0.0642 40.84372,-0.52856 42.76989,-1.31731 3.17851,-1.30154 3.0015,-1.85278 -1.9155,-5.96536 -7.99288,-6.68527 -24.03022,-16.51079 -45.64314,-27.96397 C 87.564193,247.13122 76.287319,240.26249 49.133686,222.3271 32.878407,211.59022 13.291488,191.18016 6.2328364,177.62334 0.4366356,166.49117 -0.11097096,163.98211 0.01505959,149.13431 0.20156805,127.16151 4.9988539,115.16105 20.249494,98.517663 c 20.77143,-22.668354 51.029965,-40.610859 91.308146,-54.1433 45.72017,-15.360809 85.87691,-8.68515 103.16629,17.150368 7.06199,10.552764 9.89249,26.155373 6.56911,36.211334 -2.83545,8.579615 -13.54159,16.919235 -21.72037,16.919235 -5.02584,0 -7.09663,-1.19012 -9.67985,-5.56318 -1.80744,-3.05974 -3.28626,-7.7303 -3.28626,-10.379024 0,-15.680169 -42.93924,-18.837573 -81.40877,-5.98614 -20.393449,6.812794 -43.93701,19.137324 -49.746003,26.040914 -4.859254,5.7749 -8.647466,16.43988 -8.666083,24.3977 -0.05511,23.55814 29.279911,50.51041 95.764346,87.98584 50.08686,28.23258 60.18394,37.22783 62.68043,55.84059 2.30341,17.17321 -18.71904,42.68944 -42.5026,51.58802 -17.84762,6.67764 -49.32553,9.65816 -69.980844,6.62621 z m 634.282374,-42.5802 c -11.22815,-11.22814 -0.21817,-28.98501 23.32256,-37.61461 21.33289,-7.82024 22.39778,-8.35167 22.39778,-11.1779 0,-1.458 -6.0476,-7.14796 -13.4391,-12.64433 -7.49384,-5.57248 -15.33216,-13.30894 -17.71838,-17.48812 -2.35361,-4.1221 -4.92576,-7.50137 -5.71591,-7.50949 -0.79014,-0.008 -1.45555,4.51062 -1.47869,10.04163 -0.0567,13.56942 -5.05883,23.68047 -17.04747,34.45928 -12.49627,11.23521 -20.24989,13.11509 -30.10673,7.29941 -5.56878,-3.28565 -7.36309,-3.62782 -8.62125,-1.64401 -0.87387,1.37786 -1.60205,3.00802 -1.61818,3.62257 -0.0153,0.61457 -3.1899,4.27797 -7.05283,8.14088 -8.50212,8.50214 -16.86307,9.43196 -23.29061,2.59018 -2.29069,-2.43834 -4.16489,-5.61652 -4.16489,-7.06262 0,-1.67135 -1.91918,-0.83371 -5.26763,2.29915 -10.33234,9.66706 -17.2717,11.90375 -37.19881,11.98994 -15.62794,0.0676 -19.31807,-0.5186 -23.6123,-3.75089 -5.33128,-4.01288 -9.32274,-9.98738 -12.31144,-18.42796 l -1.77732,-5.01947 -9.61267,9.02484 c -6.81477,6.39806 -13.12826,10.17801 -21.69114,12.98671 -19.43705,6.37555 -25.05973,6.8991 -36.95516,3.44101 -9.47928,-2.7557 -11.19898,-4.02413 -13.75736,-10.14718 -3.90417,-9.344 -0.97867,-19.16665 8.07635,-27.11707 5.58084,-4.90004 8.37182,-5.92414 16.14504,-5.92414 5.16879,0 9.80704,-0.66217 10.30723,-1.47149 0.50018,-0.80932 -3.0054,-5.61489 -7.79017,-10.67905 l -8.69961,-9.20756 -5.6463,6.84994 c -9.19679,11.15729 -20.03056,16.42366 -33.78619,16.42366 -11.42954,0 -11.80358,0.15755 -11.80358,4.97208 0,10.62226 -14.86685,25.67593 -25.3573,25.67593 -8.17013,0 -16.78372,-9.23818 -16.78372,-18.00073 0,-5.57008 -1.00719,-7.32324 -5.55974,-9.67745 -6.685,-3.45694 -7.84876,-1.76244 -7.84876,11.42839 0,11.53926 -2.752,17.79016 -12.0031,27.26392 -6.49773,6.6541 -9.23319,8.14087 -14.97818,8.14087 -10.4581,0 -12.14636,-3.36942 -13.24423,-26.4327 l -0.95775,-20.11984 -6.4783,5.46212 c -10.91001,9.19864 -21.34004,7.11728 -29.26173,-5.83934 l -3.51341,-5.7465 -0.008,6.13109 c -0.0172,14.38325 -3.9012,25.08584 -11.64327,32.08033 -10.2025,9.21735 -18.27683,9.28596 -28.13867,0.23917 -6.63709,-6.08859 -7.13773,-7.30176 -6.91653,-16.76063 0.13121,-5.60834 2.00114,-16.66177 4.15553,-24.56321 2.15436,-7.90144 4.50504,-22.12404 5.2237,-31.60576 0.71866,-9.48173 2.38032,-19.82544 3.69255,-22.98601 3.37942,-8.13954 16.63066,-19.46017 26.09967,-22.29716 7.24715,-2.17129 8.72637,-2.01282 14.96069,1.60279 4.70371,2.72791 8.75905,7.6022 12.6684,15.2266 3.16251,6.16785 6.03017,11.63807 6.37256,12.15606 0.3424,0.51799 1.55514,-0.77497 2.69496,-2.87325 1.13982,-2.09827 6.12387,-7.90942 11.07569,-12.91367 9.85516,-9.95951 16.48783,-11.55288 26.51227,-6.36903 7.44354,3.8492 9.85138,10.55743 9.88146,27.52966 0.0153,8.11525 0.54159,16.6779 1.17155,19.02811 1.14233,4.2617 1.16388,4.25787 8.07229,-1.43663 3.80978,-3.14035 7.91571,-5.70972 9.12426,-5.70972 2.24456,0 4.59176,-8.40852 4.59176,-16.44935 0,-10.44031 8.22225,-26.56088 18.66502,-36.59471 11.71436,-11.25563 20.45025,-14.97235 30.78397,-13.09716 12.3046,2.23282 21.33939,10.03909 33.81916,29.22054 0.15439,0.23737 6.26566,-5.36547 13.58052,-12.45076 27.01742,-26.16954 55.33249,-33.37705 68.7023,-17.48794 7.39925,8.79352 6.63033,16.53266 -2.53149,25.47894 -6.07714,5.93415 -9.89442,7.7896 -20.59163,10.00888 -19.6012,4.06653 -22.4348,10.0913 -11.30644,24.03952 3.63764,4.55939 10.3847,13.13368 14.99349,19.05402 l 8.37959,10.76423 5.11929,-8.09184 c 2.81609,-4.45051 5.11977,-10.24255 5.11977,-12.87121 0,-10.26877 18.36957,-28.34017 28.80777,-28.34017 2.42651,0 6.022,1.45719 7.99001,3.2382 1.96798,1.78101 8.93165,5.87539 15.47483,9.09862 9.16837,4.51644 12.69554,7.4951 15.38019,12.98841 l 3.48353,7.12796 7.91647,-7.60683 c 6.57576,-6.31861 9.23461,-7.60686 15.69983,-7.60686 4.28085,0 10.99989,1.72395 14.93119,3.831 3.93132,2.10705 7.52102,3.83101 7.97714,3.83101 0.4561,0 -1.6787,-7.1113 -4.74402,-15.80288 -7.43096,-21.07014 -7.2976,-26.51087 0.86826,-35.42136 5.3986,-5.8909 7.80802,-7.11146 14.03807,-7.11146 13.24616,0 23.10431,10.53996 26.42778,28.25566 1.215,6.47648 4.7355,10.11227 4.7355,4.89057 0,-1.2119 2.35355,-7.03023 5.23014,-12.92963 6.13443,-12.58077 26.26239,-33.54399 39.90838,-41.56449 8.30358,-4.88047 11.31689,-5.55619 24.77725,-5.55619 25.98978,0 32.56351,6.67649 32.56351,33.07255 l 0,16.21082 -7.50227,6.4852 c -8.6576,7.48391 -16.42867,8.41351 -22.18799,2.6542 -2.10705,-2.10705 -3.8442,-5.77045 -3.86033,-8.14088 -0.0548,-8.04778 -2.25732,-9.17612 -10.61112,-5.43602 -5.6388,2.52457 -8.52473,5.42182 -10.85942,10.90198 -6.63884,15.58328 -6.61234,15.73357 4.47589,25.39907 20.38723,17.77133 27.59189,26.01518 30.12514,34.47043 3.99158,13.32269 1.43527,22.29316 -9.71161,34.07933 -21.48735,22.71971 -38.7319,32.21895 -62.49901,34.42788 -11.81107,1.09772 -13.59921,0.8016 -17.25889,-2.85808 z M 611.82946,242.41156 c 2.57664,-4.57008 2.5344,-5.38449 -0.43326,-8.35215 -3.97277,-3.97277 -5.16619,-3.00305 -7.15465,5.81352 -2.35702,10.45072 2.25677,11.99433 7.58791,2.53863 z m -151.8514,-38.91774 4.24367,-1.13767 -3.73743,-7.32595 c -6.29958,-12.34822 -7.63549,-11.76892 -10.11455,4.386 -0.85697,5.58443 1.01868,6.38043 9.60831,4.07762 z M 217.2685,300.92118 c -4.96241,-2.489 -7.22918,-5.28019 -8.93137,-10.99758 -3.0108,-10.11283 -3.1658,-31.88826 -0.27522,-38.66419 1.34773,-3.15927 2.73591,-19.81355 3.35213,-40.21649 1.16344,-38.52115 1.83752,-40.70718 15.39856,-49.93673 8.11802,-5.52509 11.80398,-5.42906 18.83933,0.49079 9.63951,8.11111 11.9776,30.06349 9.28146,87.14336 -0.6718,14.22259 -1.23559,27.81795 -1.25287,30.21193 -0.037,5.11875 -13.8692,20.83417 -19.84198,22.54331 -2.27326,0.65052 -5.4352,1.5379 -7.02652,1.97197 -1.59132,0.43407 -5.88591,-0.7118 -9.54352,-2.54637 z M 378.64743,136.40646 c -10.09986,-4.97903 -14.59477,-14.2028 -13.39095,-27.47882 0.89601,-9.881272 0.51766,-11.594386 -3.29231,-14.907101 -2.51277,-2.184835 -4.83208,-7.04129 -5.57173,-11.666799 -1.35369,-8.46551 -4.98471,-10.145485 -12.84075,-5.941061 -3.26455,1.747134 -3.70508,4.149802 -3.70508,20.20788 0,21.321071 -2.00608,26.445591 -13.72695,35.065211 -9.74354,7.16547 -14.94566,7.47587 -22.08188,1.31758 -5.3475,-4.61472 -5.37443,-4.7563 -5.37443,-28.25364 l 0,-23.615674 -12.11908,-1.336654 C 262.27275,77.120392 253.64909,71.523534 253.64909,58.448 c 0,-6.426035 1.23413,-8.771405 8.00451,-15.211918 l 8.00453,-7.614517 12.5871,1.155066 c 6.92293,0.635286 14.4152,1.680768 16.64951,2.323292 3.17749,0.913759 4.31398,0.165825 5.21739,-3.433644 1.41392,-5.63351 13.45945,-18.338375 19.60024,-20.673099 9.35858,-3.558125 21.88074,5.811318 21.88074,16.371798 0,2.263549 1.07058,2.757668 3.97656,1.835347 2.1871,-0.694159 7.78994,-1.319757 12.45076,-1.390217 8.03932,-0.121535 8.47419,-0.412444 8.47419,-5.668882 0,-3.952792 2.05869,-7.431596 7.18313,-12.138217 7.9707,-7.320803 14.52195,-8.367069 23.45755,-3.746288 5.36485,2.774274 5.79059,2.647498 12.8345,-3.8218504 8.37965,-7.6961225 13.30578,-8.3480337 20.47404,-2.7094781 8.86503,6.9732355 10.44601,12.3841025 9.32519,31.9155045 -0.55923,9.745109 -0.51322,17.71838 0.10229,17.71838 0.61543,0 4.30089,-6.055165 8.18988,-13.455922 7.6979,-14.649132 23.89671,-31.1558212 35.21739,-35.8867305 4.27941,-1.7883604 10.68177,-2.4837871 17.99598,-1.9547253 10.09906,0.7304988 12.05064,1.5820882 17.66473,7.7081284 8.09676,8.8350984 11.0515,19.8058504 9.36915,34.7871064 -1.94971,17.362234 -8.76924,26.242586 -30.1231,39.226133 -9.9568,6.053909 -9.20115,8.567345 2.245,7.467514 6.20979,-0.596682 12.70619,-3.009441 19.03115,-7.068167 13.53462,-8.68514 22.26812,-10.842834 28.18786,-6.964078 5.71819,3.7467 6.23125,12.970562 1.1501,20.676082 -17.20826,26.096142 -67.68285,40.615322 -89.95547,25.876002 -6.85117,-4.53389 -11.08594,-10.94489 -16.77597,-25.397079 -1.09123,-2.771601 -1.98404,-0.123109 -3.2286,9.577499 -1.55303,12.10509 -2.40642,14.00668 -8.77887,19.56196 -8.26797,7.20775 -15.7426,7.99579 -24.60193,2.59375 -6.00032,-3.65874 -6.07943,-3.65706 -9.57298,0.20327 -2.95818,3.26876 -12.5081,9.35078 -14.45071,9.20317 -0.31569,-0.024 -3.37005,-1.42202 -6.78744,-3.10673 z M 495.78964,49.381309 c 5.21246,-6.194664 6.63156,-12.214452 2.56465,-10.879116 -2.57526,0.845561 -11.01413,12.445896 -11.01413,15.140354 0,3.302825 3.62158,1.476389 8.44948,-4.261238 z" style="fill:#f7f51c" />
  <path inkscape:connector-curvature="0" id="path3132" d="m 86.557967,344.5555 c -26.609152,-3.36822 -57.788456,-12.40524 -65.427699,-18.96359 -10.752037,-9.23072 -10.141452,-23.2324 1.505389,-34.52096 8.86136,-8.58878 18.032007,-9.59084 34.947797,-3.81873 12.122475,4.13653 16.266346,4.48618 53.740546,4.53451 24.91304,0.0322 41.35585,-0.69693 42.54753,-1.88654 2.74242,-2.73763 -13.76422,-14.33286 -43.67084,-30.67695 C 46.236515,224.26658 19.391971,202.63466 4.4857175,174.03581 0.77763915,166.92157 0.00457663,162.57233 0.05956356,149.13431 0.16149501,124.22379 4.9155528,113.92656 25.705844,93.58479 44.048032,75.638309 59.404426,65.717263 87.247082,53.825883 120.45306,39.643868 131.13509,37.077522 156.9596,37.077522 c 22.17614,0 23.50417,0.233833 35.84744,6.311839 15.27853,7.523356 23.45234,16.654619 27.60208,30.83528 4.33412,14.810716 2.60299,23.929926 -6.26716,33.013769 -5.74501,5.88343 -8.66074,7.41689 -14.10264,7.41689 -5.54093,0 -7.49225,-1.06989 -10.1465,-5.56318 -1.80744,-3.05974 -3.28626,-7.7303 -3.28626,-10.379024 0,-3.494011 -1.9716,-6.041696 -7.18312,-9.281956 -6.45496,-4.013361 -9.31911,-4.445919 -28.25364,-4.267006 -22.52932,0.212883 -40.13923,4.046865 -63.028756,13.722451 -35.675247,15.080215 -47.155443,32.574255 -38.34492,58.431725 5.732143,16.82291 34.140898,40.07397 83.744856,68.5407 44.51976,25.54903 63.44727,38.6988 67.25644,46.726 5.19388,10.94528 5.8408,19.27922 2.23037,28.73297 -6.09235,15.95259 -26.36189,33.09163 -46.66744,39.45994 -14.70801,4.61277 -48.67999,6.45129 -69.802383,3.77758 z m 65.954183,-13.68857 c 31.16513,-6.61775 51.96037,-29.04744 45.84735,-49.45085 -2.82414,-9.4261 -11.15458,-16.61119 -37.01219,-31.92335 C 150.48205,243.05864 130.31462,231.10852 116.5308,222.93692 88.245682,206.16836 60.502901,184.75545 51.208407,172.51864 35.114342,151.32976 38.862193,121.82301 59.533132,106.97826 78.291266,93.507189 117.14002,79.082366 142.55005,76.153479 c 29.40217,-3.389037 51.5186,1.488808 55.52609,12.246455 5.09102,13.666216 5.79757,14.762356 9.51571,14.762356 6.48527,0 10.34754,-8.300965 9.03166,-19.411366 C 214.25369,63.74139 198.96714,48.138885 177.32824,43.64344 161.60916,40.37783 136.95227,42.418079 117.76074,48.572387 65.391436,65.366096 31.382227,88.6077 18.259343,116.5708 c -7.149412,15.23443 -7.041493,34.92111 0.277085,50.54621 10.550949,22.52621 44.178495,49.05438 101.027612,79.69888 36.77858,19.82549 59.76769,36.8745 56.61046,41.98299 -0.69076,1.11767 -6.16841,3.55191 -12.17256,5.40943 -8.99621,2.78316 -18.16695,3.37729 -52.13102,3.37729 -38.316482,0 -42.259433,-0.32783 -56.077287,-4.66244 -17.029933,-5.34225 -23.6836,-4.34962 -27.752704,4.14028 -2.033114,4.24195 -1.989793,6.26355 0.249048,11.62184 2.308308,5.52457 4.661399,7.20782 15.865292,11.34899 12.656253,4.67802 23.308856,7.32716 43.803015,10.89315 14.115406,2.45607 52.873566,2.41976 64.553866,-0.0605 z m 578.09659,-25.99089 c -4.79569,-1.71394 -7.66201,-6.7259 -7.66201,-13.39753 0,-8.27991 10.74734,-20.3762 21.67117,-24.39124 4.4105,-1.62107 12.97545,-4.75029 19.03322,-6.9538 6.05777,-2.2035 11.01413,-4.76768 11.01413,-5.69818 0,-0.93047 -6.70111,-6.79292 -14.89137,-13.02762 -8.35532,-6.36036 -16.53357,-14.3852 -18.63284,-18.28334 -2.05782,-3.82112 -4.40745,-6.9475 -5.22139,-6.9475 -0.81395,0 -1.49884,4.52537 -1.52198,10.05638 -0.0567,13.56942 -5.05883,23.68047 -17.04747,34.45928 -12.57507,11.30609 -20.24838,13.13095 -29.96439,7.12612 -5.75457,-3.55653 -7.26467,-3.84186 -8.66111,-1.63655 -0.93022,1.46908 -1.70453,3.17385 -1.72066,3.7884 -0.0153,0.61457 -3.1899,4.27797 -7.05283,8.14088 -8.50212,8.50214 -16.86307,9.43196 -23.29061,2.59018 -2.29069,-2.43834 -4.16489,-5.44956 -4.16489,-6.69161 0,-1.24205 -3.94521,0.75317 -8.76711,4.43383 -11.03367,8.42219 -15.14683,9.53264 -35.37396,9.55019 -20.08751,0.0172 -25.13117,-2.72946 -31.81382,-17.3263 l -4.72084,-10.31168 -5.50226,6.26674 c -12.19814,13.89291 -41.74121,24.17045 -58.61108,20.38983 -12.44179,-2.78826 -15.39582,-4.72646 -17.82523,-11.69549 -3.06193,-8.78347 0.29081,-19.18529 8.50986,-26.40171 5.57767,-4.89727 8.3697,-5.92148 16.142,-5.92148 5.16879,0 9.79122,-0.64648 10.27206,-1.43663 0.48085,-0.79014 -2.98502,-5.69043 -7.70194,-10.88954 l -8.57621,-9.45294 -4.63068,5.91694 c -2.54689,3.25432 -8.65966,8.5856 -13.58393,11.8473 -7.64266,5.06228 -10.72768,5.93037 -21.07556,5.93037 l -12.12236,0 0,6.02015 c 0,8.69576 -16.02742,24.62786 -24.77522,24.62786 -8.77089,0 -17.3658,-8.90915 -17.3658,-18.00073 0,-5.59542 -1.00274,-7.32095 -5.65137,-9.72484 -3.10827,-1.60734 -6.12518,-2.92244 -6.70426,-2.92244 -0.57907,0 -1.05287,5.19953 -1.05287,11.55453 0,14.64484 -3.12612,22.04616 -13.1212,31.06536 -5.88334,5.3089 -9.64698,7.18312 -14.42454,7.18312 -9.82581,0 -11.5973,-3.69293 -12.67977,-26.4327 l -0.95775,-20.11984 -6.4783,5.46212 c -10.76395,9.07549 -21.36351,7.09751 -28.99084,-5.41002 l -3.24252,-5.31718 -1.21146,11.5906 c -1.43042,13.6855 -4.70071,20.70665 -12.83132,27.54809 -10.70223,9.00535 -24.5204,5.15881 -31.75996,-8.84091 -3.21459,-6.21634 -2.19756,-15.86155 4.09316,-38.81843 1.44344,-5.26762 3.17933,-16.4733 3.85751,-24.9015 0.67818,-8.42821 2.0253,-18.45112 2.99358,-22.27316 3.40657,-13.4464 26.81992,-29.20511 38.081,-25.63099 5.67672,1.80172 14.07598,11.44222 18.24964,20.94658 2.10705,4.79821 4.45534,8.73219 5.21844,8.74217 0.76309,0.01 2.64672,-2.41707 4.18586,-5.39344 1.53915,-2.97637 6.30463,-8.57921 10.58996,-12.45075 8.58005,-7.75155 15.69102,-8.99013 24.7422,-4.30958 7.44354,3.8492 9.85138,10.55743 9.88145,27.52966 0.0153,8.11525 0.54159,16.6779 1.17156,19.02811 1.14233,4.2617 1.16388,4.25787 8.07229,-1.43663 3.80977,-3.14035 7.97064,-5.70972 9.24633,-5.70972 1.31804,0 2.8486,-3.92827 3.54507,-9.09863 3.1447,-23.34515 8.74825,-34.49956 24.08612,-47.94577 17.32227,-15.18586 35.27195,-12.27341 51.69367,8.38762 3.26704,4.11043 6.5671,8.59339 7.33348,9.96213 0.98234,1.75447 5.33455,-1.35349 14.75301,-10.53525 16.63752,-16.21941 31.6782,-24.07704 48.1278,-25.14315 11.53537,-0.74762 12.17157,-0.5446 18.67613,5.95997 9.84255,9.84254 9.40706,17.57367 -1.5593,27.6821 -6.93691,6.39421 -10.09545,7.86963 -19.31251,9.02123 -11.28629,1.41012 -18.36625,5.92917 -18.36625,11.72292 0,4.65094 3.6561,10.51956 13.0483,20.94458 4.74575,5.26762 10.33263,12.43205 12.4153,15.92095 l 3.78663,6.34343 5.47945,-8.25893 c 3.01369,-4.54242 5.48312,-10.31214 5.48764,-12.82162 0.0115,-6.63617 6.70471,-16.42413 15.8082,-23.11893 8.97682,-6.60162 15.7169,-7.39679 21.08514,-2.48754 2.01605,1.84367 8.97972,5.93806 15.47484,9.09863 9.21229,4.48279 12.59129,7.34738 15.3653,13.02619 l 3.55603,7.27971 7.83612,-7.75858 c 6.4257,-6.36209 9.1609,-7.75857 15.19641,-7.75857 4.04817,0 10.73953,1.72395 14.86969,3.831 4.13016,2.10705 7.91378,3.83101 8.40805,3.83101 0.49428,0 -1.60932,-7.1113 -4.67464,-15.80288 -3.06532,-8.69159 -5.59033,-18.48806 -5.61112,-21.76994 -0.0764,-12.07784 14.93284,-23.2897 26.67118,-19.92318 3.42421,0.98204 7.49825,2.84155 9.05345,4.13224 4.05542,3.36571 9.66942,15.01526 11.2206,23.28372 1.17222,6.24849 4.7355,10.18453 4.7355,5.23089 0,-1.02473 2.35208,-6.84306 5.22684,-12.92963 6.01766,-12.74085 26.1725,-33.82815 40.23025,-42.09151 7.95088,-4.67364 11.12055,-5.36949 24.45868,-5.36949 25.98748,0 32.56351,6.68121 32.56351,33.08431 l 0,16.20108 -7.50227,6.48419 c -8.65772,7.48283 -16.42906,8.41211 -22.18799,2.65319 -2.10705,-2.10705 -3.831,-6.36606 -3.831,-9.46446 0,-7.5244 -1.63961,-8.14223 -10.76535,-4.05652 -7.42122,3.32259 -11.43687,8.85072 -14.98697,20.63175 -1.86252,6.18085 1.02939,10.20936 16.02864,22.32819 20.14283,16.27467 27.57603,31.59344 22.90129,47.19638 -2.94803,9.83964 -28.03054,34.00154 -42.74152,41.17275 -13.95155,6.80101 -34.76513,10.30915 -43.22511,7.28563 z m 42.92002,-16.6698 c 12.4027,-5.1822 31.95368,-22.12187 35.94439,-31.14353 3.10307,-7.01502 3.2966,-9.35758 1.39644,-16.90378 -1.89286,-7.51728 -4.88949,-11.23651 -21.1206,-26.21374 -12.83854,-11.84674 -18.91474,-18.79711 -18.91474,-21.63598 0,-9.37319 6.18134,-22.01731 14.52227,-29.70571 9.29671,-8.5694 15.4197,-11.55369 23.70522,-11.55369 4.95057,0 5.5562,0.77972 7.06711,9.09863 1.4548,8.00993 2.28168,9.17114 6.91055,9.70464 6.24903,0.72024 9.09263,-4.75276 9.0879,-17.49135 -0.004,-12.83316 -5.15651,-20.86116 -15.32104,-23.87494 -23.20692,-6.88085 -51.44276,9.30971 -64.3806,36.91614 -12.23624,26.10938 -5.76763,47.25273 20.24486,66.17263 7.3034,5.31204 13.82837,11.38943 14.49992,13.50531 2.76817,8.72171 -7.34688,16.47085 -32.14007,24.62255 -7.46817,2.45545 -14.144,5.98376 -15.80288,8.35214 -3.07168,4.38543 -3.79058,11.23466 -1.43563,13.67758 2.2542,2.33838 27.71253,-0.17412 35.7369,-3.5269 z M 380.83769,276.85761 c 3.53767,-4.75182 4.01445,-7.98818 3.95076,-26.81701 -0.0398,-11.77717 -0.82696,-32.15202 -1.74914,-45.27749 -1.48106,-21.07967 -2.18892,-24.37665 -6.06589,-28.25363 -9.75545,-9.75546 -19.09143,-3.14612 -27.67291,19.59083 -3.37232,8.93503 -6.92645,16.24552 -7.89809,16.24552 -0.97164,0 -3.90327,-4.95636 -6.51475,-11.01413 -11.52473,-26.73367 -16.05856,-33.04239 -23.74635,-33.04239 -15.95399,0 -21.04959,7.02777 -23.31972,32.16216 -0.92391,10.22923 -2.88398,22.90849 -4.35576,28.17611 -8.35273,29.89558 -7.71764,38.64517 3.2154,44.29886 10.89911,5.63615 17.02034,-1.78195 16.94261,-20.53209 -0.0831,-20.06677 5.07096,-47.71053 8.89556,-47.71053 0.81809,0 3.46991,5.38735 5.8929,11.97188 8.21099,22.31344 11.47468,28.08475 16.61096,29.37386 6.61445,1.66013 12.53651,-2.59753 21.42897,-15.40639 4.03598,-5.81347 8.11184,-10.58017 9.05748,-10.59264 1.01058,-0.0134 1.04047,7.67627 0.0724,18.65343 -3.14236,35.63592 -1.48551,45.48647 7.42588,44.14896 2.09354,-0.31422 5.61686,-3.00313 7.82961,-5.97531 z m 153.65529,-5.96386 c 15.16926,-5.50614 21.44788,-11.14928 23.77978,-21.37288 2.56918,-11.26395 -0.69974,-19.93897 -12.49443,-33.15753 -17.06351,-19.12342 -19.48128,-26.54623 -12.41942,-38.12902 4.20947,-6.90434 16.72828,-13.66569 25.42877,-13.73394 15.08432,-0.11832 21.28148,-10.92423 11.73813,-20.46759 -4.33533,-4.33533 -6.11907,-4.82172 -14.84513,-4.04795 -12.34831,1.09497 -25.34675,7.18752 -36.75039,17.22541 -21.08279,18.5578 -21.60225,38.63197 -1.58035,61.07091 5.58792,6.2625 11.50105,13.97997 13.14032,17.14994 l 2.98044,5.76356 -8.22014,3.73077 c -4.71669,2.1407 -12.48523,3.74871 -18.22733,3.77284 -9.24087,0.0389 -10.24291,0.49792 -13.08551,5.99487 -9.18228,17.75661 12.45554,26.40025 40.55526,16.20061 z m 93.4455,1.9936 c 14.7074,-6.14516 21.70599,-25.22032 16.4195,-44.75255 -5.73926,-21.20509 -7.14926,-23.20449 -20.6957,-29.34673 -6.92858,-3.14156 -14.06685,-7.04177 -15.86282,-8.66711 -2.90643,-2.63028 -3.87113,-2.64194 -8.77497,-0.10612 -6.05849,3.13298 -9.28238,8.4724 -10.93551,18.11148 -0.59576,3.47371 -3.69594,10.11331 -6.88929,14.7547 -3.19335,4.64139 -6.31244,10.97057 -6.9313,14.06487 -1.64808,8.24033 4.35625,26.75353 10.75079,33.14807 5.10912,5.10913 6.47037,5.46333 20.9962,5.46333 8.94819,0 18.24179,-1.13187 21.9231,-2.67 z m -27.60936,-21.30456 c -2.37497,-2.86166 -1.61055,-19.33597 1.24215,-26.76997 3.3182,-8.64708 22.311,-6.15735 24.66801,3.23368 1.40354,5.59218 -5.57599,21.85716 -10.51304,24.49938 -5.2917,2.83205 -12.62828,2.37314 -15.39712,-0.96309 z m 10.45222,-7.09967 c 2.71241,-3.87251 4.13009,-11.06679 2.18078,-11.06679 -0.44061,0 -2.10489,-0.50031 -3.69843,-1.11181 -2.1078,-0.80884 -3.45254,0.8876 -4.93473,6.22538 -1.12057,4.03546 -2.04221,7.98367 -2.04808,8.77381 -0.023,3.09921 5.67939,1.20706 8.50046,-2.82059 z m 63.83365,15.27135 c 3.60009,-7.1113 7.54325,-12.90565 8.76256,-12.87634 1.21931,0.0293 5.60287,2.61523 9.74128,5.7465 8.81053,6.66638 14.72665,7.15943 22.18467,1.84884 8.90331,-6.33971 13.38973,-18.12809 13.38973,-35.18236 0,-28.49512 -6.03009,-53.26577 -14.89659,-61.1929 -2.54563,-2.27593 -6.12426,-3.27376 -10.30461,-2.87325 -8.80282,0.84337 -9.07049,6.01391 -1.47793,28.54838 6.65194,19.74268 8.27386,37.4193 3.91525,42.67109 -3.92023,4.7236 -5.35905,3.99824 -12.90572,-6.50617 -3.81191,-5.3059 -9.37052,-10.90874 -12.35246,-12.45076 -7.47909,-3.86758 -16.56005,-3.60116 -18.694,0.54845 -0.94809,1.84367 -2.25063,14.12682 -2.89451,27.29588 -0.64388,13.16907 -1.68938,25.75471 -2.32331,27.96808 -1.34336,4.69039 3.79756,10.83416 8.33317,9.95874 1.63726,-0.316 5.92237,-6.39289 9.52247,-13.50418 z m -237.94854,-0.39182 c 3.84144,-3.84142 4.70169,-6.61139 4.70169,-15.1391 l 0,-10.43741 18.06139,-0.66378 c 20.00792,-0.73532 24.95003,-2.98778 33.3637,-15.20616 15.63255,-22.70171 -17.90716,-76.99903 -42.54082,-68.86919 -7.04341,2.32454 -16.56299,11.51995 -20.91217,20.20005 -1.5836,3.16058 -3.89933,12.64231 -5.14603,21.07051 -3.20921,21.69534 -4.21221,23.58498 -12.89883,24.30127 -6.92975,0.57139 -7.30844,0.95179 -7.88198,7.91705 -0.67466,8.19348 1.76527,12.27836 7.86043,13.15983 4.03399,0.58339 4.42017,1.52905 8.1331,19.91646 0.70805,3.50638 6.59229,7.94459 11.03415,8.32252 0.83803,0.0713 3.63945,-1.98612 6.22537,-4.57205 z m 8.76888,-50.66131 c -3.50351,-2.21915 0.12642,-23.99999 5.11417,-30.6864 8.70122,-11.66467 13.2962,-9.62698 23.74771,10.53118 5.8001,11.18686 6.067,12.44157 3.24658,15.262 -5.37353,5.37353 -26.31231,8.56452 -32.10846,4.89322 z m 14.54273,-5.20752 4.24367,-1.13767 -3.73743,-7.32595 c -2.05558,-4.02928 -4.58643,-7.85068 -5.62412,-8.49201 -1.72278,-1.06474 -2.36598,0.70483 -5.02897,13.83576 -0.92938,4.58276 1.68815,5.38757 10.14685,3.11987 z m -242.82715,97.38623 c -5.26767,-2.62915 -7.05299,-5.03514 -8.8408,-11.9142 -2.95137,-11.35599 -3.0972,-28.0698 -0.31767,-36.40715 1.22697,-3.68039 2.73543,-22.3625 3.35213,-41.51578 1.21182,-37.63705 1.95019,-40.26757 13.69037,-48.77419 8.30212,-6.01548 13.98765,-6.24997 20.41473,-0.84194 10.13894,8.53136 11.9152,26.45153 9.00791,90.87864 -1.32225,29.30181 -1.71575,31.6982 -6.0511,36.85046 -10.7406,12.76449 -21.26313,16.71155 -31.25557,11.72416 z m 23.15704,-12.90679 c 3.093,-1.59945 6.12481,-4.90497 6.73739,-7.3456 0.61256,-2.44066 1.27153,-26.77577 1.46436,-54.07807 0.31543,-44.65735 0.004,-50.27684 -3.10928,-55.97922 -2.94828,-5.40134 -4.35812,-6.25113 -9.53383,-5.74651 -9.51716,0.92792 -10.88651,5.91601 -10.9425,39.85996 -0.0341,20.68421 -0.91425,32.54252 -2.90149,39.09332 -5.23094,17.24334 -3.13029,39.0644 4.30409,44.70984 4.12375,3.13146 7.1471,3.02036 13.98126,-0.51372 z M 379.11438,136.61939 c -3.16058,-1.56759 -7.80465,-5.86894 -10.32019,-9.55854 -3.94982,-5.79332 -4.43369,-8.25215 -3.54741,-18.02627 0.91695,-10.112254 0.54774,-11.767463 -3.46579,-15.537988 -2.74932,-2.582849 -4.71719,-6.914267 -5.07234,-11.164566 -0.45738,-5.473748 -1.47212,-7.071384 -4.79136,-7.543643 -2.31607,-0.329533 -5.97946,0.347274 -8.14087,1.50402 -3.5065,1.876628 -3.92981,3.922072 -3.92981,18.989444 0,21.500333 -2.17744,27.512893 -12.93987,35.730613 -10.24845,7.82527 -15.56663,8.28994 -22.86896,1.99814 -5.34564,-4.60589 -5.37443,-4.75671 -5.37443,-28.14829 l 0,-23.517588 -15.324,-2.255544 C 265.04794,76.396865 258.62567,73.678929 255.77581,67.424175 251.49321,58.024881 253.111,51.36246 261.64799,43.241431 l 7.9989,-7.609168 12.59273,1.211763 c 6.92601,0.666468 14.53217,1.738666 16.90261,2.382661 2.99823,0.814557 4.30987,0.341742 4.30987,-1.553615 0,-3.917032 8.59424,-15.003334 14.80605,-19.099364 11.23767,-7.41004 24.17468,-2.565257 26.68649,9.993839 0.92226,4.611288 1.87842,5.504516 4.87445,4.553616 2.04991,-0.650621 7.54052,-1.240595 12.20134,-1.311055 7.958,-0.120305 8.47419,-0.452313 8.47419,-5.45059 0,-3.663061 2.23953,-7.445133 7.18313,-12.130753 8.04514,-7.6253066 14.89101,-8.7282656 23.30932,-3.755443 5.10183,3.013718 5.4006,2.924129 12.7463,-3.8218502 8.60309,-7.9007174 13.49947,-8.5982502 20.6843,-2.946659 8.44087,6.6395852 9.6769,10.8484002 9.09764,30.9783332 -0.2956,10.271872 -0.05,18.676131 0.54563,18.676131 0.59568,0 3.77675,-5.336161 7.06902,-11.858136 6.73645,-13.344801 24.04298,-31.6536599 34.58419,-36.587166 15.97545,-7.4768383 34.23323,-2.4104355 42.5343,11.802963 4.08707,6.998042 5.2855,24.292143 2.57342,37.136203 -1.73401,8.211996 -12.4605,19.701663 -26.72108,28.622205 -5.00425,3.130349 -9.09863,6.479583 -9.09863,7.442743 0,0.963159 3.70333,1.7512 8.22964,1.7512 6.12792,0 10.8975,-1.707084 18.67613,-6.684396 14.48898,-9.271069 23.75869,-11.686364 29.75993,-7.754193 12.5172,8.201585 -1.10294,30.39413 -26.69965,43.50413 -8.69277,4.45223 -29.53579,9.16405 -40.74626,9.21121 -16.69387,0.0702 -30.60594,-10.3386 -36.42502,-27.25275 l -3.46315,-10.066251 -1.9617,14.798811 c -1.78496,13.46566 -2.56564,15.31365 -8.66594,20.51379 -7.91896,6.75044 -15.60445,7.43733 -24.24757,2.16711 -6.00033,-3.65874 -6.07944,-3.65706 -9.57299,0.20327 -2.95818,3.26876 -12.5081,9.35078 -14.4507,9.20317 -0.3157,-0.024 -3.15993,-1.3262 -6.3205,-2.8938 z m 17.08283,-11.63378 c 2.46533,-0.94603 3.02992,-4.51539 3.02992,-19.155 l 0,-17.992322 8.73281,0 c 5.76169,0 8.2981,0.703358 7.45511,2.06734 -0.70272,1.137038 -0.68349,7.615977 0.0427,14.397642 1.17964,11.01538 1.90372,12.63192 6.7898,15.15861 10.85972,5.61578 15.28953,-0.24331 15.28953,-20.222732 0,-10.498573 0.96882,-15.476293 4.09467,-21.037981 l 4.09467,-7.285478 -4.09467,-5.205526 c -3.67813,-4.676044 -4.09462,-7.600565 -4.09462,-28.751936 0,-23.156057 -0.0837,-23.612223 -5.04707,-27.5164365 -5.60842,-4.4115806 -9.39231,-5.0355277 -11.34796,-1.871223 -0.71343,1.1543429 -1.96299,13.7023625 -2.77679,27.8844875 -0.8138,14.182127 -1.93372,26.239766 -2.48871,26.794758 -0.555,0.554991 -4.55907,1.485229 -8.89795,2.067194 l -7.88887,1.058119 1.31045,-23.187799 c 0.99099,-17.535023 0.71707,-23.902783 -1.12361,-26.12068 -2.56491,-3.09052 -12.54576,-4.043094 -14.20656,-1.355876 -0.53605,0.867353 -1.97871,11.426551 -3.20594,23.464883 -2.10019,20.601927 -2.556,22.149243 -7.75816,26.336583 -7.05329,5.677379 -7.35933,13.523773 -0.7712,19.772874 4.15049,3.936894 4.75989,6.175024 4.78876,17.587899 0.0301,11.87789 0.54651,13.59039 5.63226,18.67613 5.82283,5.82284 7.38082,6.37841 12.44142,4.43647 z m -66.06713,-5.79988 c 3.50684,-4.45822 3.97003,-7.68373 3.97003,-27.645682 0,-25.028609 -0.98675,-23.251034 14.36626,-25.880016 14.12005,-2.417858 23.94375,-9.863089 23.94375,-18.146612 0,-9.789361 -6.96604,-11.27977 -29.50742,-6.313202 -5.52986,1.218398 -5.55641,1.181017 -4.36686,-6.149305 1.45467,-8.964085 -2.41846,-14.255146 -10.43494,-14.255146 -6.12832,0 -10.46992,5.246778 -12.42323,15.013291 -1.88466,9.423338 -6.35944,10.822132 -25.22961,7.886645 -18.88688,-2.938087 -22.16011,-1.757139 -23.02034,8.305532 -0.79635,9.315104 4.24205,12.34683 24.6959,14.860143 11.22654,1.379488 16.87037,2.973576 18.5992,5.253299 1.78899,2.359067 2.32381,9.573105 1.91551,25.838013 -0.46208,18.40673 -0.037,22.90206 2.30678,24.3933 5.1149,3.25443 11.12267,2.00411 15.18497,-3.16026 z m 193.75659,-8.16304 c 14.71792,-5.59128 26.66501,-16.045791 26.66501,-23.333664 0,-8.76081 -7.79812,-8.203455 -23.94376,1.711339 -10.67518,6.555464 -12.56139,7.057676 -26.50737,7.057676 -13.46817,0 -15.39147,-0.465691 -18.67613,-4.522084 -5.88093,-7.262632 -4.83443,-11.759671 2.73654,-11.759671 8.6146,0 28.42272,-10.152903 35.47205,-18.181645 11.00965,-12.539294 10.05394,-37.456787 -1.89495,-49.405671 -5.23125,-5.231256 -6.48494,-5.5906528 -16.87941,-4.838786 -8.53945,0.617688 -12.91019,2.0949217 -18.25093,6.168506 -23.97668,18.287917 -33.9782,56.577448 -21.44525,82.100439 3.3794,6.882081 8.07855,12.903291 12.45075,15.953711 6.51776,4.54733 8.19335,4.83527 23.30444,4.00476 9.96968,-0.54794 20.42497,-2.46885 26.96901,-4.95491 z M 481.59366,56.010286 c 0,-4.923042 9.35329,-19.457851 16.93902,-26.322829 4.85909,-4.397416 11.36598,-2.642218 12.90266,3.480425 2.40219,9.571055 -13.4571,27.853398 -24.16184,27.853398 -4.84867,0 -5.67984,-0.733291 -5.67984,-5.010994 z m 11.35622,-2.577804 c 3.98883,-2.134764 8.98009,-12.951824 6.91202,-14.979755 -1.6693,-1.63688 -12.52174,10.804714 -12.52174,14.355319 0,2.949763 1.04703,3.06631 5.60972,0.624436 z" style="fill:#161613" />
</svg>
